<?xml version="1.0" standalone="no"?>
<!DOCTYPE svg PUBLIC "-//W3C//DTD SVG 20010904//EN"
 "http://www.w3.org/TR/2001/REC-SVG-20010904/DTD/svg10.dtd">
<svg version="1.0" xmlns="http://www.w3.org/2000/svg"
 width="540.000000pt" height="540.000000pt" viewBox="0 0 540.000000 540.000000"
 preserveAspectRatio="xMidYMid meet">
<metadata>
Created by potrace 1.14, written by Peter Selinger 2001-2017
</metadata>
<g transform="translate(0.000000,540.000000) scale(0.100000,-0.100000)"
fill="#000000" stroke="none">
<path d="M1161 4650 c-9 -20 -6 -2402 3 -2500 6 -66 26 -206 41 -281 17 -92
92 -278 155 -389 121 -211 357 -418 565 -495 28 -10 55 -22 60 -26 14 -11 178
-58 240 -70 369 -69 779 -57 1080 32 216 64 397 170 544 318 206 208 326 464
375 802 16 110 19 304 20 1407 1 1071 -1 1212 -14 1213 -103 4 -522 1 -527 -4
-3 -4 -7 -573 -9 -1264 -1 -692 -4 -1267 -7 -1278 -2 -11 -8 -42 -12 -70 -17
-109 -99 -302 -157 -371 -143 -167 -292 -255 -520 -308 -157 -36 -340 -40
-538 -12 -61 9 -83 15 -177 46 -224 75 -386 211 -478 402 -27 56 -49 113 -43
113 1 0 -4 9 -10 21 -6 11 -19 63 -28 115 -16 86 -18 200 -19 1347 -1 689 -5
1255 -8 1259 -4 3 -124 7 -268 7 -223 1 -262 -1 -268 -14z"/>
</g>
</svg>
